# xmcd CD database file
#
# Track frame offsets:
#	150
#	17417
#	29327
#
# Disc length: 621 seconds
#
# Revision: 0
# Processed by: cddbd v1.5.1PL0 Copyright (c) Steve Scherf et al.
# Submitted via: CDex 1.51
#
DISCID=16026b03
DTITLE=NOBODY - DREAM -夢の中で
DYEAR=1996
DGENRE=Rock
TTITLE0=DREAM -夢の中で
TTITLE1=YOU GOT TO WIN
TTITLE2=DREAM -夢の中で (Backing Track)
EXTD=YEAR: 1996
EXTT0=
EXTT1=
EXTT2=
PLAYORDER=
